%TF.GenerationSoftware,KiCad,Pcbnew,9.0.6*%
%TF.CreationDate,2026-05-12T22:21:36+05:30*%
%TF.ProjectId,Cards,43617264-732e-46b6-9963-61645f706362,rev?*%
%TF.SameCoordinates,Original*%
%TF.FileFunction,Copper,L2,Bot*%
%TF.FilePolarity,Positive*%
%FSLAX46Y46*%
G04 Gerber Fmt 4.6, Leading zero omitted, Abs format (unit mm)*
G04 Created by KiCad (PCBNEW 9.0.6) date 2026-05-12 22:21:36*
%MOMM*%
%LPD*%
G01*
G04 APERTURE LIST*
G04 Aperture macros list*
%AMRoundRect*
0 Rectangle with rounded corners*
0 $1 Rounding radius*
0 $2 $3 $4 $5 $6 $7 $8 $9 X,Y pos of 4 corners*
0 Add a 4 corners polygon primitive as box body*
4,1,4,$2,$3,$4,$5,$6,$7,$8,$9,$2,$3,0*
0 Add four circle primitives for the rounded corners*
1,1,$1+$1,$2,$3*
1,1,$1+$1,$4,$5*
1,1,$1+$1,$6,$7*
1,1,$1+$1,$8,$9*
0 Add four rect primitives between the rounded corners*
20,1,$1+$1,$2,$3,$4,$5,0*
20,1,$1+$1,$4,$5,$6,$7,0*
20,1,$1+$1,$6,$7,$8,$9,0*
20,1,$1+$1,$8,$9,$2,$3,0*%
G04 Aperture macros list end*
%TA.AperFunction,SMDPad,CuDef*%
%ADD10RoundRect,0.450000X-0.450000X1.300000X-0.450000X-1.300000X0.450000X-1.300000X0.450000X1.300000X0*%
%TD*%
%TA.AperFunction,ComponentPad*%
%ADD11C,1.800000*%
%TD*%
%TA.AperFunction,SMDPad,CuDef*%
%ADD12RoundRect,0.450000X0.450000X-1.300000X0.450000X1.300000X-0.450000X1.300000X-0.450000X-1.300000X0*%
%TD*%
%TA.AperFunction,ComponentPad*%
%ADD13RoundRect,0.450000X0.450000X-0.450000X0.450000X0.450000X-0.450000X0.450000X-0.450000X-0.450000X0*%
%TD*%
%TA.AperFunction,ComponentPad*%
%ADD14RoundRect,0.337500X0.562500X0.337500X-0.562500X0.337500X-0.562500X-0.337500X0.562500X-0.337500X0*%
%TD*%
%TA.AperFunction,SMDPad,CuDef*%
%ADD15RoundRect,0.337500X0.912500X0.337500X-0.912500X0.337500X-0.912500X-0.337500X0.912500X-0.337500X0*%
%TD*%
%TA.AperFunction,ViaPad*%
%ADD16C,0.600000*%
%TD*%
%TA.AperFunction,Conductor*%
%ADD17C,0.200000*%
%TD*%
G04 APERTURE END LIST*
D10*
%TO.P,U1,1,P26*%
%TO.N,unconnected-(U1-P26-Pad1)*%
X112580000Y-72480000D03*
D11*
X112580000Y-73780000D03*
D10*
%TO.P,U1,2,P27*%
%TO.N,unconnected-(U1-P27-Pad2)*%
X115120000Y-72480000D03*
D11*
X115120000Y-73780000D03*
D10*
%TO.P,U1,3,P28*%
%TO.N,unconnected-(U1-P28-Pad3)*%
X117660000Y-72480000D03*
D11*
X117660000Y-73780000D03*
D10*
%TO.P,U1,4,P29*%
%TO.N,unconnected-(U1-P29-Pad4)*%
X120200000Y-72480000D03*
D11*
X120200000Y-73780000D03*
D10*
%TO.P,U1,5,P6*%
%TO.N,Net-(LED1-DIN)*%
X122740000Y-72480000D03*
D11*
X122740000Y-73780000D03*
D10*
%TO.P,U1,6,P7*%
%TO.N,unconnected-(U1-P7-Pad6)*%
X125280000Y-72480000D03*
D11*
X125280000Y-73780000D03*
D10*
%TO.P,U1,7,P0*%
%TO.N,unconnected-(U1-P0-Pad7)*%
X127820000Y-72480000D03*
D11*
X127820000Y-73780000D03*
%TO.P,U1,8,5V*%
%TO.N,VCC*%
X112580000Y-89020000D03*
D12*
X112580000Y-90320000D03*
D13*
%TO.P,U1,9,GND*%
%TO.N,GND*%
X115120000Y-89020000D03*
D12*
X115120000Y-90320000D03*
D11*
%TO.P,U1,10,3V3*%
%TO.N,unconnected-(U1-3V3-Pad10)*%
X117660000Y-89020000D03*
D12*
X117660001Y-90320000D03*
D11*
%TO.P,U1,11,P3*%
%TO.N,unconnected-(U1-P3-Pad11)*%
X120200000Y-89020000D03*
D12*
X120200000Y-90320000D03*
D11*
%TO.P,U1,12,P4*%
%TO.N,unconnected-(U1-P4-Pad12)*%
X122740000Y-89020000D03*
D12*
X122740000Y-90320000D03*
D11*
%TO.P,U1,13,P2*%
%TO.N,unconnected-(U1-P2-Pad13)*%
X125280000Y-89020000D03*
D10*
X125280000Y-90320000D03*
D11*
%TO.P,U1,14,P1*%
%TO.N,unconnected-(U1-P1-Pad14)*%
X127820000Y-89020000D03*
D10*
X127820000Y-90320000D03*
D14*
%TO.P,U1,17,VIN*%
%TO.N,unconnected-(U1-VIN-Pad17)*%
X128836000Y-80258270D03*
D15*
X128836000Y-80258270D03*
D14*
%TO.P,U1,18,GND*%
%TO.N,unconnected-(U1-GND-Pad18)*%
X128836000Y-82798270D03*
D15*
X128836000Y-82798270D03*
D11*
%TO.P,U1,19,DIO*%
%TO.N,unconnected-(U1-DIO-Pad19)*%
X111627500Y-80130000D03*
%TO.P,U1,20,CLK*%
%TO.N,unconnected-(U1-CLK-Pad20)*%
X111627500Y-82670000D03*
%TO.P,U1,21,RST*%
%TO.N,unconnected-(U1-RST-Pad21)*%
X114167500Y-80130000D03*
D13*
%TO.P,U1,22,GND*%
%TO.N,unconnected-(U1-GND-Pad22)*%
X114167500Y-82670000D03*
%TD*%
D16*
%TO.N,VCC*%
X188400000Y-72800000D03*
X182000000Y-76000000D03*
%TD*%
D17*
%TO.N,VCC*%
X185200000Y-72800000D02*
X188400000Y-72800000D01*
X182000000Y-76000000D02*
X185200000Y-72800000D01*
%TD*%
M02*
