%TF.GenerationSoftware,KiCad,Pcbnew,9.0.6*%
%TF.CreationDate,2026-05-12T22:21:36+05:30*%
%TF.ProjectId,Cards,43617264-732e-46b6-9963-61645f706362,rev?*%
%TF.SameCoordinates,Original*%
%TF.FileFunction,Copper,L1,Top*%
%TF.FilePolarity,Positive*%
%FSLAX46Y46*%
G04 Gerber Fmt 4.6, Leading zero omitted, Abs format (unit mm)*
G04 Created by KiCad (PCBNEW 9.0.6) date 2026-05-12 22:21:36*
%MOMM*%
%LPD*%
G01*
G04 APERTURE LIST*
G04 Aperture macros list*
%AMRoundRect*
0 Rectangle with rounded corners*
0 $1 Rounding radius*
0 $2 $3 $4 $5 $6 $7 $8 $9 X,Y pos of 4 corners*
0 Add a 4 corners polygon primitive as box body*
4,1,4,$2,$3,$4,$5,$6,$7,$8,$9,$2,$3,0*
0 Add four circle primitives for the rounded corners*
1,1,$1+$1,$2,$3*
1,1,$1+$1,$4,$5*
1,1,$1+$1,$6,$7*
1,1,$1+$1,$8,$9*
0 Add four rect primitives between the rounded corners*
20,1,$1+$1,$2,$3,$4,$5,0*
20,1,$1+$1,$4,$5,$6,$7,0*
20,1,$1+$1,$6,$7,$8,$9,0*
20,1,$1+$1,$8,$9,$2,$3,0*%
%AMFreePoly0*
4,1,18,-0.410000,0.265000,0.000000,0.675000,0.328000,0.675000,0.359380,0.668758,0.385983,0.650983,0.403758,0.624380,0.410000,0.593000,0.410000,-0.593000,0.403758,-0.624380,0.385983,-0.650983,0.359380,-0.668758,0.328000,-0.675000,-0.328000,-0.675000,-0.359380,-0.668758,-0.385983,-0.650983,-0.403758,-0.624380,-0.410000,-0.593000,-0.410000,0.265000,-0.410000,0.265000,$1*%
G04 Aperture macros list end*
%TA.AperFunction,SMDPad,CuDef*%
%ADD10RoundRect,0.082000X0.593000X-0.328000X0.593000X0.328000X-0.593000X0.328000X-0.593000X-0.328000X0*%
%TD*%
%TA.AperFunction,SMDPad,CuDef*%
%ADD11FreePoly0,90.000000*%
%TD*%
%TA.AperFunction,ComponentPad*%
%ADD12C,1.800000*%
%TD*%
%TA.AperFunction,ComponentPad*%
%ADD13RoundRect,0.450000X0.450000X-0.450000X0.450000X0.450000X-0.450000X0.450000X-0.450000X-0.450000X0*%
%TD*%
%TA.AperFunction,ComponentPad*%
%ADD14RoundRect,0.337500X0.562500X0.337500X-0.562500X0.337500X-0.562500X-0.337500X0.562500X-0.337500X0*%
%TD*%
%TA.AperFunction,ViaPad*%
%ADD15C,0.600000*%
%TD*%
%TA.AperFunction,Conductor*%
%ADD16C,0.200000*%
%TD*%
G04 APERTURE END LIST*
D10*
%TO.P,LED1,1,VDD*%
%TO.N,VCC*%
X192725000Y-74850000D03*
%TO.P,LED1,2,DOUT*%
%TO.N,Net-(LED1-DOUT)*%
X192725000Y-76350000D03*
%TO.P,LED1,3,DIN*%
%TO.N,Net-(LED1-DIN)*%
X187275000Y-74850000D03*
D11*
%TO.P,LED1,4,VSS*%
%TO.N,GND*%
X187275000Y-76350000D03*
%TD*%
D10*
%TO.P,LED3,1,VDD*%
%TO.N,VCC*%
X192725000Y-119050000D03*
%TO.P,LED3,2,DOUT*%
%TO.N,unconnected-(LED3-DOUT-Pad2)*%
X192725000Y-120550000D03*
%TO.P,LED3,3,DIN*%
%TO.N,Net-(LED2-DOUT)*%
X187275000Y-119050000D03*
D11*
%TO.P,LED3,4,VSS*%
%TO.N,GND*%
X187275000Y-120550000D03*
%TD*%
D10*
%TO.P,LED2,1,VDD*%
%TO.N,VCC*%
X192250000Y-95600000D03*
%TO.P,LED2,2,DOUT*%
%TO.N,Net-(LED2-DOUT)*%
X192250000Y-97100000D03*
%TO.P,LED2,3,DIN*%
%TO.N,Net-(LED1-DOUT)*%
X186800000Y-95600000D03*
D11*
%TO.P,LED2,4,VSS*%
%TO.N,GND*%
X186800000Y-97100000D03*
%TD*%
D12*
%TO.P,U1,1,P26*%
%TO.N,unconnected-(U1-P26-Pad1)*%
X112580000Y-73780000D03*
%TO.P,U1,2,P27*%
%TO.N,unconnected-(U1-P27-Pad2)*%
X115120000Y-73780000D03*
%TO.P,U1,3,P28*%
%TO.N,unconnected-(U1-P28-Pad3)*%
X117660000Y-73780000D03*
%TO.P,U1,4,P29*%
%TO.N,unconnected-(U1-P29-Pad4)*%
X120200000Y-73780000D03*
%TO.P,U1,5,P6*%
%TO.N,Net-(LED1-DIN)*%
X122740000Y-73780000D03*
%TO.P,U1,6,P7*%
%TO.N,unconnected-(U1-P7-Pad6)*%
X125280000Y-73780000D03*
%TO.P,U1,7,P0*%
%TO.N,unconnected-(U1-P0-Pad7)*%
X127820000Y-73780000D03*
%TO.P,U1,8,5V*%
%TO.N,VCC*%
X112580000Y-89020000D03*
D13*
%TO.P,U1,9,GND*%
%TO.N,GND*%
X115120000Y-89020000D03*
D12*
%TO.P,U1,10,3V3*%
%TO.N,unconnected-(U1-3V3-Pad10)*%
X117660000Y-89020000D03*
%TO.P,U1,11,P3*%
%TO.N,unconnected-(U1-P3-Pad11)*%
X120200000Y-89020000D03*
%TO.P,U1,12,P4*%
%TO.N,unconnected-(U1-P4-Pad12)*%
X122740000Y-89020000D03*
%TO.P,U1,13,P2*%
%TO.N,unconnected-(U1-P2-Pad13)*%
X125280000Y-89020000D03*
%TO.P,U1,14,P1*%
%TO.N,unconnected-(U1-P1-Pad14)*%
X127820000Y-89020000D03*
D14*
%TO.P,U1,17,VIN*%
%TO.N,unconnected-(U1-VIN-Pad17)*%
X128836000Y-80258270D03*
%TO.P,U1,18,GND*%
%TO.N,unconnected-(U1-GND-Pad18)*%
X128836000Y-82798270D03*
D12*
%TO.P,U1,19,DIO*%
%TO.N,unconnected-(U1-DIO-Pad19)*%
X111627500Y-80130000D03*
%TO.P,U1,20,CLK*%
%TO.N,unconnected-(U1-CLK-Pad20)*%
X111627500Y-82670000D03*
%TO.P,U1,21,RST*%
%TO.N,unconnected-(U1-RST-Pad21)*%
X114167500Y-80130000D03*
D13*
%TO.P,U1,22,GND*%
%TO.N,unconnected-(U1-GND-Pad22)*%
X114167500Y-82670000D03*
%TD*%
D15*
%TO.N,VCC*%
X188400000Y-72800000D03*
X182000000Y-76000000D03*
%TD*%
D16*
%TO.N,Net-(LED1-DIN)*%
X123941000Y-74981000D02*
X187144000Y-74981000D01*
X187144000Y-74981000D02*
X187275000Y-74850000D01*
X122740000Y-73780000D02*
X123941000Y-74981000D01*
%TO.N,GND*%
X185824000Y-77801000D02*
X185824000Y-96124000D01*
X185824000Y-96124000D02*
X186800000Y-97100000D01*
X186299000Y-119574000D02*
X187275000Y-120550000D01*
X186825000Y-76800000D02*
X187275000Y-76350000D01*
X186299000Y-97601000D02*
X186299000Y-119574000D01*
X186800000Y-97100000D02*
X186299000Y-97601000D01*
X187275000Y-76350000D02*
X185824000Y-77801000D01*
X126200000Y-76800000D02*
X186825000Y-76800000D01*
X115120000Y-87880000D02*
X126200000Y-76800000D01*
X115120000Y-89020000D02*
X115120000Y-87880000D01*
%TO.N,VCC*%
X193701000Y-75826000D02*
X192725000Y-74850000D01*
X193226000Y-96576000D02*
X192250000Y-95600000D01*
X188400000Y-72800000D02*
X188600000Y-72800000D01*
X188600000Y-72800000D02*
X189600000Y-71800000D01*
X192725000Y-72275000D02*
X192725000Y-74850000D01*
X192725000Y-119050000D02*
X193226000Y-118549000D01*
X189600000Y-71800000D02*
X192400000Y-71800000D01*
X192400000Y-71800000D02*
X192800000Y-72200000D01*
X193701000Y-94149000D02*
X193701000Y-75826000D01*
X125600000Y-76000000D02*
X141600000Y-76000000D01*
X192800000Y-72200000D02*
X192725000Y-72275000D01*
X141600000Y-76000000D02*
X182000000Y-76000000D01*
X193226000Y-118549000D02*
X193226000Y-96576000D01*
X112580000Y-89020000D02*
X125600000Y-76000000D01*
X192250000Y-95600000D02*
X193701000Y-94149000D01*
%TO.N,Net-(LED1-DOUT)*%
X192800000Y-85400000D02*
X192725000Y-85325000D01*
X192725000Y-85325000D02*
X192725000Y-76350000D01*
X186800000Y-95600000D02*
X186800000Y-91400000D01*
X186800000Y-91400000D02*
X192800000Y-85400000D01*
%TO.N,Net-(LED2-DOUT)*%
X192800000Y-102000000D02*
X192800000Y-97650000D01*
X187275000Y-119050000D02*
X187275000Y-107525000D01*
X187275000Y-107525000D02*
X192800000Y-102000000D01*
X192800000Y-97650000D02*
X192250000Y-97100000D01*
%TD*%
M02*
