%TF.GenerationSoftware,KiCad,Pcbnew,9.0.6*%
%TF.CreationDate,2026-05-12T22:21:38+05:30*%
%TF.ProjectId,Cards,43617264-732e-46b6-9963-61645f706362,rev?*%
%TF.SameCoordinates,Original*%
%TF.FileFunction,Profile,NP*%
%FSLAX46Y46*%
G04 Gerber Fmt 4.6, Leading zero omitted, Abs format (unit mm)*
G04 Created by KiCad (PCBNEW 9.0.6) date 2026-05-12 22:21:38*
%MOMM*%
%LPD*%
G01*
G04 APERTURE LIST*
%TA.AperFunction,Profile*%
%ADD10C,0.050000*%
%TD*%
%TA.AperFunction,Profile*%
%ADD11C,0.100000*%
%TD*%
G04 APERTURE END LIST*
D10*
X191720000Y-70010000D02*
G75*
G02*
X195200000Y-73490000I0J-3480000D01*
G01*
X191720000Y-123990000D02*
X113080000Y-123990000D01*
X113080000Y-123990000D02*
G75*
G02*
X109600000Y-120510000I0J3480000D01*
G01*
X109600000Y-120510000D02*
X109600000Y-73490000D01*
X109600000Y-73490000D02*
G75*
G02*
X113080000Y-70010000I3480000J0D01*
G01*
X195200000Y-73490000D02*
X195200000Y-120510000D01*
X113080000Y-70010000D02*
X191720000Y-70010000D01*
X195200000Y-120510000D02*
G75*
G02*
X191720000Y-123990000I-3480000J0D01*
G01*
D11*
%TO.C,LED1*%
X188300001Y-74897157D02*
X188300001Y-76302841D01*
X189205548Y-77099999D02*
X190794452Y-77099999D01*
X190794452Y-74100000D02*
X189205547Y-74100000D01*
X191699999Y-76302841D02*
X191699999Y-74897157D01*
X188250516Y-74680279D02*
G75*
G02*
X188300001Y-74897156I-450505J-216876D01*
G01*
X188250516Y-74680279D02*
G75*
G02*
X188953289Y-74031701I450514J216878D01*
G01*
X188300001Y-76302841D02*
G75*
G02*
X188250516Y-76519719I-499990J-2D01*
G01*
X188953289Y-77168298D02*
G75*
G02*
X188250516Y-76519718I-252259J431700D01*
G01*
X188953289Y-77168298D02*
G75*
G02*
X189205548Y-77099999I252261J-431710D01*
G01*
X189205547Y-74100000D02*
G75*
G02*
X188953289Y-74031701I3J500009D01*
G01*
X190794452Y-77099999D02*
G75*
G02*
X191046710Y-77168297I-2J-500011D01*
G01*
X191046711Y-74031700D02*
G75*
G02*
X190794453Y-74099999I-252261J431710D01*
G01*
X191046711Y-74031700D02*
G75*
G02*
X191749484Y-74680279I252259J-431700D01*
G01*
X191699999Y-74897157D02*
G75*
G02*
X191749486Y-74680280I499991J-3D01*
G01*
X191749484Y-76519719D02*
G75*
G02*
X191046711Y-77168296I-450515J-216877D01*
G01*
X191749484Y-76519719D02*
G75*
G02*
X191699981Y-76302842I450516J216919D01*
G01*
%TO.C,LED3*%
X188300001Y-119097157D02*
X188300001Y-120502841D01*
X189205548Y-121299999D02*
X190794452Y-121299999D01*
X190794452Y-118300000D02*
X189205547Y-118300000D01*
X191699999Y-120502841D02*
X191699999Y-119097157D01*
X188250516Y-118880279D02*
G75*
G02*
X188300001Y-119097156I-450505J-216876D01*
G01*
X188250516Y-118880279D02*
G75*
G02*
X188953289Y-118231701I450514J216878D01*
G01*
X188300001Y-120502841D02*
G75*
G02*
X188250516Y-120719719I-499990J-2D01*
G01*
X188953289Y-121368298D02*
G75*
G02*
X188250516Y-120719718I-252259J431700D01*
G01*
X188953289Y-121368298D02*
G75*
G02*
X189205548Y-121299999I252261J-431710D01*
G01*
X189205547Y-118300000D02*
G75*
G02*
X188953289Y-118231701I3J500009D01*
G01*
X190794452Y-121299999D02*
G75*
G02*
X191046710Y-121368297I-2J-500011D01*
G01*
X191046711Y-118231700D02*
G75*
G02*
X190794453Y-118299999I-252261J431710D01*
G01*
X191046711Y-118231700D02*
G75*
G02*
X191749484Y-118880279I252259J-431700D01*
G01*
X191699999Y-119097157D02*
G75*
G02*
X191749486Y-118880280I499991J-3D01*
G01*
X191749484Y-120719719D02*
G75*
G02*
X191046711Y-121368296I-450515J-216877D01*
G01*
X191749484Y-120719719D02*
G75*
G02*
X191699981Y-120502842I450516J216919D01*
G01*
%TO.C,LED2*%
X187825001Y-95647157D02*
X187825001Y-97052841D01*
X188730548Y-97849999D02*
X190319452Y-97849999D01*
X190319452Y-94850000D02*
X188730547Y-94850000D01*
X191224999Y-97052841D02*
X191224999Y-95647157D01*
X187775516Y-95430279D02*
G75*
G02*
X187825001Y-95647156I-450505J-216876D01*
G01*
X187775516Y-95430279D02*
G75*
G02*
X188478289Y-94781701I450514J216878D01*
G01*
X187825001Y-97052841D02*
G75*
G02*
X187775516Y-97269719I-499990J-2D01*
G01*
X188478289Y-97918298D02*
G75*
G02*
X187775516Y-97269718I-252259J431700D01*
G01*
X188478289Y-97918298D02*
G75*
G02*
X188730548Y-97849999I252261J-431710D01*
G01*
X188730547Y-94850000D02*
G75*
G02*
X188478289Y-94781701I3J500009D01*
G01*
X190319452Y-97849999D02*
G75*
G02*
X190571710Y-97918297I-2J-500011D01*
G01*
X190571711Y-94781700D02*
G75*
G02*
X190319453Y-94849999I-252261J431710D01*
G01*
X190571711Y-94781700D02*
G75*
G02*
X191274484Y-95430279I252259J-431700D01*
G01*
X191224999Y-95647157D02*
G75*
G02*
X191274486Y-95430280I499991J-3D01*
G01*
X191274484Y-97269719D02*
G75*
G02*
X190571711Y-97918296I-450515J-216877D01*
G01*
X191274484Y-97269719D02*
G75*
G02*
X191224981Y-97052842I450516J216919D01*
G01*
%TD*%
M02*
